# xmcd CD database file
#
# Track frame offsets:
#	150
#	12559
#	24885
#	37232
#	51577
#	64070
#	77440
#	89532
#	101185
#	114100
#	127755
#	140827
#
# Disc length: 2056 seconds
#
# Revision: 0
# Processed by: cddbd v1.5.2PL0 Copyright (c) Steve Scherf et al.
# Submitted via: ACXtractor (MTCDDB.DLL V2003.07.15)
#
DISCID=a008060c
DTITLE=Ray Kernaghan - Lost Highway
DYEAR=1997
DGENRE=Country
TTITLE0=Lost Highway
TTITLE1=Cold Cold Heart
TTITLE2=Why Should We Try Anmore
TTITLE3=There's A Tear In My Beer
TTITLE4=A Mansion on the Hill
TTITLE5=There'll Be No Teardrops Tonight
TTITLE6=Half As Much
TTITLE7=I Can't Help It If I'm Still In Love With You
TTITLE8=They'll Never Take Her Love From Me
TTITLE9=Hey Good Lookin'
TTITLE10=Take These Chain From My Heart
TTITLE11=I Won't Be Home No More
EXTD=ID3G:   2 YEAR: 1997
EXTT0=
EXTT1=
EXTT2=
EXTT3=
EXTT4=
EXTT5=
EXTT6=
EXTT7=
EXTT8=
EXTT9=
EXTT10=
EXTT11=
PLAYORDER=
